<svg width="128" height="128" viewBox="0 0 128 128" xmlns="http://www.w3.org/2000/svg"><defs><linearGradient id="g1" x1="0" y1="0" x2="1" y2="1"><stop offset="0%" stop-color="#6EE7F9"/><stop offset="100%" stop-color="#8B5CF6"/></linearGradient><linearGradient id="g2" x1="0" y1="1" x2="1" y2="0"><stop offset="0%" stop-color="#22D3EE"/><stop offset="100%" stop-color="#4F46E5"/></linearGradient></defs><rect x="8" y="8" width="112" height="112" rx="24" fill="url(#g1)" opacity="0.15"/><g fill="none" stroke="url(#g2)" stroke-width="6" stroke-linecap="round" stroke-linejoin="round"><path d="M64 40l5 7 9-1 2 9 8 5-6 7 3 9-9 2-5 8-8-5-9 3-2-9-8-5 6-7-3-9 9-2z"/><circle cx="64" cy="66" r="12" fill="url(#g1)" stroke="none"/><path d="M28 84h72c4 0 6-3 6-6 0-11-10-16-22-16H44c-12 0-22 5-22 16 0 3 2 6 6 6z"/><circle cx="44" cy="88" r="6"/><circle cx="84" cy="88" r="6"/></g></svg>