<svg xmlns="http://www.w3.org/2000/svg" width="200" height="200" viewBox="0 0 24 24" fill="none" stroke="currentColor" stroke-width="1" stroke-linecap="round" stroke-linejoin="round" class="lucide lucide-car-mechanic">
    <path d="M15.5 13a3 3 0 1 0-3 5.2V15"/>
    <path d="M12.5 13H18"/>
    <path d="M17 3.34a10 10 0 1 1 -1.99 17.32"/>
    <path d="M14 6.66l.5 1.34l1.5.16l-1.08 1.04l.26 1.5l-1.34-.7l-1.34.7l.26-1.5l-1.08-1.04l1.5-.16l.5-1.34z"/>
    <path d="m4.34 15.66l1.32-1.32"/>
    <path d="m5.66 14.34l-1.32 1.32"/>
    <path d="m14.34 5.66-1.32 1.32"/>
    <path d="m15.66 4.34l-1.32 1.32"/>
    <path d="m20.66 9.66-1.32 1.32"/>
    <path d="m19.34 10.96-1.32-1.32"/>
</svg>